<?xml version="1.0" encoding="utf-8"?>
<!-- Generator: Adobe Illustrator 18.1.1, SVG Export Plug-In . SVG Version: 6.00 Build 0)  -->
<!DOCTYPE svg PUBLIC "-//W3C//DTD SVG 1.1//EN" "http://www.w3.org/Graphics/SVG/1.1/DTD/svg11.dtd">
<svg version="1.1" id="Layer_1" xmlns="http://www.w3.org/2000/svg" xmlns:xlink="http://www.w3.org/1999/xlink" x="0px" y="0px"
	 viewBox="4 3.5 416 121" enable-background="new 4 3.5 416 121" xml:space="preserve">
<g>
	<rect x="-1" y="-0.9" fill="#FFFFFF" fill-opacity="0" width="428" height="132.6"/>
	<path fill="#005E82" d="M261.7,42.3c-6.7,0-25.1,0.8-29.9,1.7c-2.5,0.5-3.1,1.7-3.1,2.6v4.3c0,1.5,1.3,2.6,3.2,2.6l0.3,0
		c6.8-0.4,22.8-0.6,28.9-0.6c7.2,0,7.2,1.8,7.2,2.5V56c0,2.7-3.7,3.1-6,3.1h-26.8c-1.9,0-3.3,1.1-3.3,2.6v4.6c0,1.5,1.4,2.7,3.3,2.7
		h27.1c5.6,0,5.6,2.1,5.6,3v1c0,0.8,0,3-7.2,3c-5.1,0-23-0.2-29.2-0.5h-0.2c-1.8,0-3.2,1.1-3.2,2.6v4.3c0,0.8,0.4,2.1,3,2.6
		c4.9,0.9,23.8,1.5,30.2,1.5c16,0,24.8-4.8,24.8-13.5v-1c0-3.3-2-6.2-5.6-8.2c3.4-2.1,5.6-5.2,5.6-8.2v-0.8
		C286.4,42.3,267.8,42.3,261.7,42.3"/>
	<path fill="#005E82" d="M419.4,55.6v-0.8c0-12.6-18.6-12.6-24.8-12.6c-6.7,0-25.1,0.8-29.9,1.7c-2.5,0.5-3.1,1.7-3.1,2.6v4.3
		c0,1.5,1.3,2.6,3.2,2.6l0.3,0c6.8-0.4,22.8-0.6,28.9-0.6c7.2,0,7.2,1.8,7.2,2.5V56c0,2.7-3.7,3.1-6,3.1h-26.8
		c-1.9,0-3.3,1.1-3.3,2.6v4.6c0,1.5,1.4,2.7,3.3,2.7h27.1c5.6,0,5.6,2.1,5.6,3v1c0,0.8,0,3-7.2,3c-5.1,0-23-0.2-29.2-0.5h-0.2
		c-1.8,0-3.2,1.1-3.2,2.6v4.3c0,0.8,0.4,2.1,3,2.6c4.9,0.9,23.8,1.5,30.2,1.5c16,0,24.8-4.8,24.8-13.5v-1c0-3.3-2-6.2-5.6-8.2
		C417.2,61.7,419.4,58.7,419.4,55.6"/>
	<path fill="#005E82" d="M345.2,49.2c-2.4-6.2-9.9-7-16.3-7h-10.8c-6.3,0-13.8,0.8-16.2,7l-13.2,33.4l-0.2,0.5v0.4
		c0,1.2,1,2.4,3.1,2.4h12.4c1.6,0,2.9-0.8,3.3-2l2.8-7.8H337l2.8,7.7c0.4,1.2,1.7,2.1,3.3,2.1h12.4c2.1,0,3.1-1.3,3.1-2.4l0-0.5
		L345.2,49.2 M333.4,65.6h-19.6l4.6-12.5l5.3,0l5.3,0L333.4,65.6z"/>
	<path fill="#8C9093" d="M25.9,48c23.5-29.5,61.6-42.9,98.3-34.7c0.4,0.1,0.6,0.6,0.3,1C97.7,45.3,56,54.6,6.9,53.8l-0.5,0.4
		C4.5,61.4,4.7,68.6,7,75.7l0.5,0.4c79.6,0,119.1-25.9,138.9-62.4c0.2-0.4,0.3-0.7-0.2-0.9C120.8,4,90.5,2.8,63.8,9.5
		C37.1,16.3,16.9,30.2,8.8,47.5l0,0.6l0.5,0.3H25L25.9,48 M126.5,43.9l-1.6,1.4c-0.4,0.3-0.2,1,0.4,1l1.4,0c0.5,0,0.8,0.7,0.4,1
		C96.2,72.9,65.2,82.5,11.1,83c-0.4,0-0.7,0.5-0.5,0.9c14,24.6,51.8,40.8,93.5,40.1c41.7-0.7,77.5-18.1,88.4-43.1
		c11-25-5.5-51.7-40.6-65.9c-0.5-0.2-0.7,0.1-0.8,0.4l-3,5.9c-0.2,0.4,0,0.7,0.2,0.8c16.7,7.6,26.7,25,25,43.4
		c-1.1,21.3-20.5,39.8-50.7,48.4c-31,5.9-60,1.3-77.5-12.3c-0.4-0.3-0.2-1,0.3-1c44.2-0.6,85.3-22.8,110.1-59.6
		c0.3-0.4,0-0.9-0.5-0.9l-24-0.3l-0.4,0.2L126.5,43.9"/>
</g>
</svg>
