<?xml version="1.0" encoding="utf-8"?>
<!-- Generator: Adobe Illustrator 18.1.1, SVG Export Plug-In . SVG Version: 6.00 Build 0)  -->
<!DOCTYPE svg PUBLIC "-//W3C//DTD SVG 1.1//EN" "http://www.w3.org/Graphics/SVG/1.1/DTD/svg11.dtd">
<svg version="1.1" id="Шар_1" xmlns="http://www.w3.org/2000/svg" xmlns:xlink="http://www.w3.org/1999/xlink" x="0px" y="0px"
	 viewBox="-140 102.1 141.5 75.7" enable-background="new -140 102.1 141.5 75.7" xml:space="preserve">
<g>
	<g>
		<g>
			<g>
				<g>
					<path fill="#58595B" d="M1.7,139.9c0,20.9-31.7,37.9-70.9,37.9c-39.1,0-70.9-16.9-70.9-37.9s31.7-37.9,70.9-37.9
						C-30,102.1,1.7,119,1.7,139.9 M-134.9,139.9c0,15.8,26.4,32.7,65.7,32.7c39.3,0,65.8-16.9,65.8-32.7
						c0-15.8-26.4-32.7-65.8-32.7C-108.5,107.3-134.9,124.2-134.9,139.9"/>
					<g>
						<g>
							<path fill="#58595B" d="M-32.6,116.6c-10-3.6-22.4-5.8-36.5-5.8c-14.1,0-26.5,2.3-36.5,5.8H-32.6L-32.6,116.6z"/>
						</g>
						<g>
							<path fill="#58595B" d="M-125.1,152.2l32.7-0.2l-17.6-33.7c-13.5,5.7-21.5,14-21.5,21.7C-131.5,144-129.2,148.2-125.1,152.2
								L-125.1,152.2z"/>
						</g>
						<g>
							<path fill="#58595B" d="M-80.3,146.2l8.3,13.5H-114c11,5.6,26.6,9.4,44.9,9.4c31.2,0,54.4-11.1,60.6-22.9L-80.3,146.2
								L-80.3,146.2z"/>
						</g>
					</g>
					<g>
						<path fill="#58595B" d="M-94.3,134h-1c0,0,10.7,19.5,11.6,21.1c-1.9,0-35.5,0-35.5,0v1.2h37.6c0,0-10.7-19.5-11.6-21.1
							c1.6,0,8,0,8,0V134L-94.3,134L-94.3,134z"/>
					</g>
					<g>
						<polygon fill="#58595B" points="-27.6,133.8 -27.6,135 -7.7,135 -7.7,133.8 						"/>
					</g>
					<g>
						<g>
							<path fill="#58595B" d="M-77,122.7h2.1l-5.9,15.8c-0.7,1.8-1.7,4.4-3.5,4.4c-0.4,0-0.8-0.1-1.2-0.4l0.8-3.9
								c0.2,0.2,0.6,0.3,0.8,0.3c0.6,0,1-0.6,1.5-1.9l-0.2-14.4h2.1l0,9.9L-77,122.7L-77,122.7z"/>
						</g>
						<g>
							<polygon fill="#58595B" points="-71.8,128.2 -69.7,128.2 -73.5,135.2 -72.5,142.6 -74.6,142.6 -75.2,136.2 -75.3,136.2 
								-76.5,142.6 -78.3,142.6 -75.4,128.2 -73.6,128.2 -74.8,134.1 -74.8,134.1 							"/>
						</g>
						<path fill="#58595B" d="M-67.4,128.2l-0.3,1.5h0c1-1.9,1.9-2,2.4-2c1.6,0,1.9,2.7,1.6,5.8c-0.5,3.9-2.1,9.7-4.5,9.7
							c-0.4,0-1.3-0.2-1.6-2l-1.4,6.7H-73l4-19.7H-67.4 M-69,136.8c-0.2,1.8-0.1,3.4,0.8,3.4c1.3,0,2.3-3.8,2.6-6.3
							c0.3-2.8-0.3-3.4-0.8-3.4c-0.5,0-1.5,0.7-2.3,4.6C-68.9,135.7-69,136.3-69,136.8"/>
						<path fill="#58595B" d="M-56.1,122.7l-0.9,19.9h-2l0.2-3.7h-3l-1.3,3.7h-2.1l7.2-19.9H-56.1 M-58.6,135.5l0.5-7.6l-2.6,7.6
							H-58.6"/>
						<path fill="#58595B" d="M-48,122.7c1.8,0,2,2.2,1.7,4.2c-0.2,1.8-0.9,4.4-2.4,5.2l0,0.1c0.6,0.4,1.2,1.5,0.9,4.1
							c-0.4,3.7-1.9,6.3-4.4,6.3h-4l4.1-19.9L-48,122.7 M-53.5,138.7h2c0.5,0,1.4-0.5,1.6-2.4c0.2-1.7-0.2-2.1-0.9-2.1h-1.8
							L-53.5,138.7 M-51.8,130.4h1.8c0.4,0,1.2-0.4,1.4-2.2c0.1-1-0.1-1.7-0.7-1.7H-51L-51.8,130.4"/>
						<g>
							<polygon fill="#58595B" points="-45.1,126.6 -44.3,122.7 -37.3,122.7 -38.1,126.6 -40.6,126.6 -43.9,142.6 -45.8,142.6 
								-42.6,126.6 							"/>
						</g>
						<path fill="#58595B" d="M-39.2,135c0.6-4.9,2.8-12.8,6.5-12.8c2.3,0,3.3,3,2.7,8.2c-0.6,4.9-2.7,12.8-6.4,12.8
							C-39.7,143.2-39.5,137.4-39.2,135 M-32.2,131c0.3-2.2,0.3-5-1.2-5c-2,0-3.3,5.2-3.6,8.3c-0.3,2.8-0.1,5,1.2,5
							C-33.8,139.3-32.5,134-32.2,131"/>
					</g>
				</g>
			</g>
		</g>
	</g>
</g>
</svg>
