<?xml version="1.0" encoding="utf-8"?>
<!-- Generator: Adobe Illustrator 18.1.1, SVG Export Plug-In . SVG Version: 6.00 Build 0)  -->
<!DOCTYPE svg PUBLIC "-//W3C//DTD SVG 1.1//EN" "http://www.w3.org/Graphics/SVG/1.1/DTD/svg11.dtd">
<svg version="1.1" id="Слой_1" xmlns="http://www.w3.org/2000/svg" xmlns:xlink="http://www.w3.org/1999/xlink" x="0px" y="0px"
	 viewBox="-0.8 -1.3 14.1 14.6" enable-background="new -0.8 -1.3 14.1 14.6" xml:space="preserve">
<g>
	<path fill="#FFFFFF" d="M6.2,13.2C2.3,13.2-1,10-1,6s3.2-7.2,7.2-7.2s7.2,3.2,7.2,7.2h-1c0-3.4-2.8-6.2-6.2-6.2S0,2.6,0,6
		s2.8,6.2,6.2,6.2V13.2z"/>
</g>
<g opacity="0.5">
	<path fill="#FFFFFF" d="M6.2,13c-3.9,0-7-3.1-7-7s3.1-7,7-7s7,3.1,7,7S10.1,13,6.2,13z M6.2-0.5C2.6-0.5-0.3,2.5-0.3,6
		s2.9,6.5,6.5,6.5s6.5-2.9,6.5-6.5S9.8-0.5,6.2-0.5z"/>
</g>
<g>
	<circle fill="#FFFFFF" cx="6.2" cy="6" r="0.5"/>
</g>
</svg>
